<?xml version="1.0" encoding="utf-8"?>
<!-- Generator: sketch.js 3.0 <https://api.sketch.io/> -->
<svg version="1.1" xmlns="http://www.w3.org/2000/svg" xmlns:xlink="http://www.w3.org/1999/xlink" xmlns:sketchjs="https://sketch.io/dtd/" id="Layer_4" x="0" y="0" width="100" height="100" viewBox="0 0 100 100" sketchjs:version="3.0">
<defs></defs>
	<path d="M73.689,29.396v41.209c0,1.94-1.578,3.518-3.518,3.518H29.83c-1.941,0-3.519-1.578-3.519-3.518V29.396  c0-1.94,1.578-3.518,3.519-3.518h40.341C72.111,25.877,73.689,27.456,73.689,29.396z M83.096,22.653v54.693  c0,3.493-2.833,6.325-6.325,6.325H23.229c-3.492,0-6.325-2.832-6.325-6.325V22.653c0-3.493,2.833-6.325,6.325-6.325h53.542  C80.263,16.329,83.096,19.161,83.096,22.653z M76.183,29.396c0-3.314-2.697-6.012-6.012-6.012H29.83  c-3.315,0-6.013,2.697-6.013,6.012v41.209c0,3.314,2.697,6.012,6.013,6.012h40.341c3.314,0,6.012-2.697,6.012-6.012V29.396z" sketchjs:uid="0" fill="#ff5a00" stroke="none"></path>
</svg>